<svg width="17" height="12" viewBox="0 0 17 12" fill="none" xmlns="http://www.w3.org/2000/svg">
<path d="M12.6999 3.59999L11.2499 8.16999C11.2499 7.81999 10.2499 0.23999 10.2499 0.23999C7.94994 0.23999 6.72994 1.86999 6.08994 3.59999L4.31994 8.17999C4.31994 7.84999 4.06994 3.63999 4.06994 3.63999C3.98457 2.72861 3.56792 1.88019 2.89892 1.25542C2.22992 0.630652 1.35502 0.272921 0.439941 0.249989L2.31994 11.73C4.71994 11.73 6.01994 10.1 6.68994 8.36999L8.18994 4.46999C8.18994 4.62999 9.18994 11.73 9.18994 11.73C10.1713 11.7287 11.1268 11.415 11.9179 10.8342C12.709 10.2535 13.2947 9.43591 13.5899 8.49999L16.9899 0.23999C14.5899 0.23999 13.3299 1.86999 12.6899 3.59999H12.6999Z" fill="white"/>
</svg>
