<svg width="20" height="16" viewBox="0 0 20 16" fill="none" xmlns="http://www.w3.org/2000/svg">
<path d="M2.81982 15.6602H17.1802C18.9233 15.6602 19.7866 14.7969 19.7866 13.0869V2.95166C19.7866 1.2417 18.9233 0.378418 17.1802 0.378418H2.81982C1.08496 0.378418 0.213379 1.2334 0.213379 2.95166V13.0869C0.213379 14.8052 1.08496 15.6602 2.81982 15.6602ZM2.83643 14.3237C2.00635 14.3237 1.5498 13.8838 1.5498 13.0205V3.01807C1.5498 2.15479 2.00635 1.71484 2.83643 1.71484H6.53857V14.3237H2.83643ZM17.1636 1.71484C17.9854 1.71484 18.4502 2.15479 18.4502 3.01807V13.0205C18.4502 13.8838 17.9854 14.3237 17.1636 14.3237H7.8418V1.71484H17.1636ZM4.93652 4.79443C5.19385 4.79443 5.40967 4.57031 5.40967 4.32959C5.40967 4.08057 5.19385 3.86475 4.93652 3.86475H3.16016C2.91113 3.86475 2.68701 4.08057 2.68701 4.32959C2.68701 4.57031 2.91113 4.79443 3.16016 4.79443H4.93652ZM4.93652 6.94434C5.19385 6.94434 5.40967 6.72021 5.40967 6.47119C5.40967 6.22217 5.19385 6.01465 4.93652 6.01465H3.16016C2.91113 6.01465 2.68701 6.22217 2.68701 6.47119C2.68701 6.72021 2.91113 6.94434 3.16016 6.94434H4.93652ZM4.93652 9.08594C5.19385 9.08594 5.40967 8.87842 5.40967 8.62939C5.40967 8.38037 5.19385 8.16455 4.93652 8.16455H3.16016C2.91113 8.16455 2.68701 8.38037 2.68701 8.62939C2.68701 8.87842 2.91113 9.08594 3.16016 9.08594H4.93652Z" fill="black"/>
</svg>
