<svg width="18" height="15" viewBox="0 0 18 15" fill="none" xmlns="http://www.w3.org/2000/svg">
<path d="M17.6353 9.7334V3.25146C17.6353 1.74268 16.8735 0.980957 15.3354 0.980957H2.66455C1.13379 0.980957 0.364746 1.73535 0.364746 3.25146V12.1943C0.364746 13.7104 1.13379 14.4648 2.66455 14.4648H11.688V13.2856H2.6792C1.94678 13.2856 1.54395 12.8975 1.54395 12.1357V3.31006C1.54395 2.54834 1.94678 2.16016 2.6792 2.16016H15.3208C16.0459 2.16016 16.4561 2.54834 16.4561 3.31006V8.53955L17.6353 9.7334ZM3.74121 5.30225H12.2959C12.5596 5.30225 12.75 5.10449 12.75 4.84814C12.75 4.59912 12.5596 4.40137 12.2959 4.40137H3.74121C3.47021 4.40137 3.27979 4.59912 3.27979 4.84814C3.27979 5.10449 3.47021 5.30225 3.74121 5.30225ZM12.3105 12.6338C12.3032 12.9194 12.6328 13.0146 12.8232 12.8315L13.9365 11.7109L15.189 14.8018C15.2476 14.9409 15.394 15.0068 15.5259 14.9556L16.2583 14.6626C16.3901 14.604 16.4414 14.4502 16.3755 14.311L15.0571 11.2715L16.6392 11.2056C16.9175 11.1909 17.0493 10.9199 16.8516 10.7148L12.8452 6.59863C12.6621 6.41553 12.3838 6.51807 12.3765 6.78906L12.3105 12.6338ZM3.74121 8.17334H8.79492C9.05127 8.17334 9.2417 7.97559 9.2417 7.71191C9.2417 7.46289 9.05127 7.27246 8.79492 7.27246H3.74121C3.47021 7.27246 3.27979 7.46289 3.27979 7.71191C3.27979 7.97559 3.47021 8.17334 3.74121 8.17334ZM3.74121 11.0371H10.6479C10.9043 11.0371 11.0947 10.8467 11.0947 10.5977C11.0947 10.3413 10.9043 10.1362 10.6479 10.1362H3.74121C3.47021 10.1362 3.27979 10.3413 3.27979 10.5977C3.27979 10.8467 3.47021 11.0371 3.74121 11.0371Z" fill="white"/>
</svg>
