<svg width="16" height="16" viewBox="0 0 16 16" fill="none" xmlns="http://www.w3.org/2000/svg">
<path d="M8 15.1826C12.0869 15.1826 15.4707 11.7915 15.4707 7.71191C15.4707 3.625 12.0796 0.241211 7.99268 0.241211C3.91309 0.241211 0.529297 3.625 0.529297 7.71191C0.529297 11.7915 3.92041 15.1826 8 15.1826ZM8 13.9375C4.54297 13.9375 1.78174 11.1689 1.78174 7.71191C1.78174 4.25488 4.53564 1.48633 7.99268 1.48633C11.4497 1.48633 14.2183 4.25488 14.2256 7.71191C14.2329 11.1689 11.457 13.9375 8 13.9375ZM4.48438 7.12598C4.48438 7.52148 4.7041 7.67529 5.09961 7.67529H7.69238V5.69775H7.12842C6.5498 5.69775 6.21289 5.33887 6.21289 4.92871C6.21289 4.5332 6.50586 4.2915 6.90869 4.2915C7.34814 4.2915 7.69238 4.62842 7.69238 5.17041V5.69775H8.29297V7.67529H10.8931C11.2886 7.67529 11.501 7.52148 11.501 7.12598V6.23975C11.501 5.85889 11.2886 5.69775 10.8931 5.69775H10.0361C10.2559 5.5 10.373 5.22168 10.373 4.90674C10.373 4.19629 9.81641 3.69092 9.12061 3.69092C8.60791 3.69092 8.18311 3.96924 7.99268 4.46729C7.80225 3.96924 7.38477 3.69092 6.87207 3.69092C6.16895 3.69092 5.6123 4.19629 5.6123 4.90674C5.6123 5.22168 5.73682 5.5 5.94922 5.69775H5.09961C4.71875 5.69775 4.48438 5.85889 4.48438 6.23975V7.12598ZM9.08398 4.2915C9.48682 4.2915 9.77246 4.5332 9.77246 4.92871C9.77246 5.33887 9.43555 5.69775 8.85693 5.69775H8.29297V5.17041C8.29297 4.62842 8.63721 4.2915 9.08398 4.2915ZM5.00439 10.4219C5.00439 11.0225 5.36328 11.3447 5.97119 11.3447H7.69238V8.06348H5.00439V10.4219ZM8.29297 11.3447H10.0142C10.6221 11.3447 10.981 11.0225 10.981 10.4219V8.06348H8.29297V11.3447Z" fill="white"/>
</svg>
