<svg width="12" height="18" viewBox="0 0 12 18" fill="none" xmlns="http://www.w3.org/2000/svg">
<path d="M2.95251 17.7273C4.54227 17.7273 5.8325 16.424 5.8325 14.8182V11.9091H2.95251C1.36275 11.9091 0.0725098 13.2124 0.0725098 14.8182C0.0725098 16.424 1.36275 17.7273 2.95251 17.7273Z" fill="#0ACF83"/>
<path d="M0.0725098 8.99997C0.0725098 7.39415 1.36275 6.09088 2.95251 6.09088H5.8325V11.9091H2.95251C1.36275 11.9091 0.0725098 10.6058 0.0725098 8.99997Z" fill="#A259FF"/>
<path d="M0.0724487 3.18179C0.0724487 1.57598 1.36269 0.272705 2.95245 0.272705H5.83244V6.09088H2.95245C1.36269 6.09088 0.0724487 4.78761 0.0724487 3.18179Z" fill="#F24E1E"/>
<path d="M5.83252 0.272705H8.71252C10.3023 0.272705 11.5925 1.57598 11.5925 3.18179C11.5925 4.78761 10.3023 6.09088 8.71252 6.09088H5.83252V0.272705Z" fill="#FF7262"/>
<path d="M11.5925 8.99997C11.5925 10.6058 10.3023 11.9091 8.71252 11.9091C7.12276 11.9091 5.83252 10.6058 5.83252 8.99997C5.83252 7.39415 7.12276 6.09088 8.71252 6.09088C10.3023 6.09088 11.5925 7.39415 11.5925 8.99997Z" fill="#1ABCFE"/>
</svg>
