<svg width="33" height="32" viewBox="0 0 33 32" fill="none" xmlns="http://www.w3.org/2000/svg">
<g filter="url(#filter0_d)">
<path d="M20.7289 21.9773C18.7387 23.1437 16.0021 23.2636 13.249 22.0665C11.0198 21.1043 9.17014 19.42 7.98444 17.4957C8.55358 17.9767 9.21756 18.3618 9.92897 18.6984C12.7722 20.0504 15.6148 19.9578 17.6153 18.7018C17.614 18.7005 17.6132 18.6997 17.6123 18.6984C14.7666 16.485 12.3478 13.598 10.5456 11.2406C10.166 10.8556 9.88146 10.3745 9.59689 9.94144C11.7786 11.9623 15.241 14.5122 16.4738 15.2343C13.8657 12.4434 11.5415 8.97926 11.6362 9.0753C15.7625 13.3095 19.6044 15.7154 19.6044 15.7154C19.7315 15.7881 19.8296 15.8487 19.9085 15.9027C19.9916 15.6881 20.0645 15.4653 20.126 15.2343C20.7899 12.7804 20.0313 9.98946 18.3711 7.68005C22.2126 10.0377 24.4894 14.4642 23.5405 18.1693C23.5158 18.2693 23.4889 18.3679 23.4599 18.4648C23.471 18.4782 23.4821 18.4921 23.4932 18.5063C25.3901 20.9122 24.8685 23.4622 24.6314 22.9811C23.6024 20.9382 21.6974 21.5629 20.729 21.9774L20.7289 21.9773Z" fill="#3913B8"/>
</g>
<defs>
<filter id="filter0_d" x="-41.3467" y="-41.651" width="115.558" height="114.022" filterUnits="userSpaceOnUse" color-interpolation-filters="sRGB">
<feFlood flood-opacity="0" result="BackgroundImageFix"/>
<feColorMatrix in="SourceAlpha" type="matrix" values="0 0 0 0 0 0 0 0 0 0 0 0 0 0 0 0 0 0 127 0"/>
<feOffset/>
<feGaussianBlur stdDeviation="24.6655"/>
<feColorMatrix type="matrix" values="0 0 0 0 0.250017 0 0 0 0 0.215353 0 0 0 0 0.847968 0 0 0 0.610768 0"/>
<feBlend mode="normal" in2="BackgroundImageFix" result="effect1_dropShadow"/>
<feBlend mode="normal" in="SourceGraphic" in2="effect1_dropShadow" result="shape"/>
</filter>
</defs>
</svg>
