<svg width="18" height="17" viewBox="0 0 18 17" fill="none" xmlns="http://www.w3.org/2000/svg">
<path d="M9 15.8823C9.19043 15.8823 9.37354 15.8604 9.57129 15.8457L9.98877 16.6514C10.0693 16.8125 10.2305 16.9004 10.4355 16.8711C10.6187 16.8345 10.7432 16.7026 10.7725 16.5049L10.897 15.6187C11.2632 15.5234 11.6221 15.3843 11.9663 15.2305L12.6255 15.8237C12.7646 15.9556 12.9404 15.9849 13.1235 15.8823C13.2847 15.7944 13.3506 15.6187 13.314 15.4282L13.1309 14.5493C13.4385 14.3369 13.7388 14.0952 14.0098 13.8242L14.8228 14.1685C15.0059 14.2417 15.1816 14.2051 15.3208 14.0366C15.4453 13.9048 15.46 13.7144 15.3501 13.5532L14.874 12.7915C15.0938 12.4839 15.2695 12.1543 15.438 11.8027L16.3389 11.8467C16.5293 11.854 16.6831 11.7515 16.749 11.5684C16.8076 11.3853 16.7563 11.2095 16.6025 11.0923L15.8994 10.5356C15.9946 10.1841 16.0679 9.80322 16.1045 9.40771L16.9468 9.14404C17.1372 9.07812 17.2471 8.93896 17.2471 8.74121C17.2471 8.55078 17.1372 8.41162 16.9468 8.3457L16.1045 8.07471C16.0679 7.6792 15.9946 7.31299 15.8994 6.9541L16.6025 6.39014C16.749 6.28027 16.8076 6.11182 16.749 5.92871C16.6831 5.74561 16.5293 5.64307 16.3389 5.65039L15.438 5.68701C15.2695 5.33545 15.0938 5.00586 14.874 4.69824L15.3501 3.93652C15.4526 3.78271 15.438 3.59229 15.3208 3.46045C15.1816 3.29199 15.0059 3.24805 14.8228 3.32861L14.0098 3.6582C13.7388 3.40186 13.4385 3.15283 13.1309 2.94043L13.314 2.06885C13.3506 1.87109 13.2847 1.69531 13.1235 1.60742C12.9404 1.51221 12.7646 1.52686 12.6255 1.67334L11.9663 2.25195C11.6221 2.09814 11.2632 1.97363 10.897 1.87109L10.7725 0.984863C10.7432 0.794434 10.6113 0.655273 10.4282 0.625977C10.2305 0.59668 10.0693 0.677246 9.98877 0.838379L9.57129 1.64404C9.37354 1.62939 9.19043 1.61475 9 1.61475C8.80225 1.61475 8.62646 1.62939 8.42871 1.64404L8.00391 0.838379C7.92334 0.677246 7.76221 0.59668 7.56445 0.625977C7.38135 0.655273 7.24951 0.794434 7.22754 0.984863L7.0957 1.86377C6.72949 1.97363 6.37793 2.09814 6.02637 2.25195L5.36719 1.67334C5.22803 1.52686 5.05225 1.51221 4.86914 1.60742C4.70801 1.69531 4.64209 1.87109 4.67871 2.06885L4.86182 2.94043C4.56152 3.15283 4.25391 3.40186 3.98291 3.6582L3.16992 3.32861C2.98682 3.24805 2.81836 3.29199 2.6792 3.46045C2.55469 3.59229 2.54004 3.78271 2.64258 3.9292L3.11865 4.69824C2.90625 5.00586 2.72314 5.33545 2.55469 5.68701L1.66113 5.65039C1.4707 5.64307 1.30957 5.74561 1.24365 5.92871C1.18506 6.11182 1.23633 6.28027 1.39014 6.39014L2.09326 6.9541C1.99805 7.31299 1.9248 7.6792 1.90283 8.07471L1.0459 8.3457C0.855469 8.4043 0.75293 8.54346 0.75293 8.74121C0.75293 8.93896 0.855469 9.07812 1.0459 9.14404L1.90283 9.41504C1.9248 9.80322 1.99805 10.1841 2.09326 10.5356L1.39014 11.0923C1.24365 11.2095 1.19238 11.3853 1.24365 11.5684C1.30957 11.7515 1.4707 11.854 1.66113 11.8467L2.55469 11.8027C2.72314 12.1543 2.90625 12.4839 3.11865 12.7915L2.64258 13.5532C2.54004 13.7144 2.55469 13.9048 2.6792 14.0366C2.81836 14.2051 2.98682 14.2417 3.16992 14.1685L3.98291 13.8242C4.25391 14.0952 4.56152 14.3369 4.86182 14.5493L4.67871 15.4282C4.64209 15.6187 4.70801 15.7944 4.86914 15.8823C5.05225 15.9849 5.22803 15.9556 5.36719 15.8237L6.02637 15.2305C6.37793 15.3843 6.72949 15.5234 7.0957 15.6187L7.22754 16.5049C7.24951 16.7026 7.38135 16.8345 7.56445 16.8711C7.76221 16.9004 7.92334 16.8125 8.00391 16.6514L8.42871 15.8457C8.61914 15.8604 8.80225 15.8823 9 15.8823ZM10.8384 8.27979C10.5015 7.35693 9.82031 6.85156 8.98535 6.85156C8.85352 6.85156 8.71436 6.86621 8.47266 6.91748L6.37061 3.32861C7.16162 2.94043 8.04785 2.72803 9 2.72803C12.1934 2.72803 14.6982 5.15234 14.9326 8.27979H10.8384ZM3.05273 8.74854C3.05273 6.7124 4.01953 4.91797 5.52832 3.83398L7.65234 7.44482C7.24951 7.85498 7.06641 8.30176 7.06641 8.77783C7.06641 9.23926 7.24219 9.66406 7.64502 10.0889L5.48438 13.6338C3.99756 12.5425 3.05273 10.77 3.05273 8.74854ZM8.10645 8.77051C8.10645 8.27246 8.52393 7.88428 9 7.88428C9.49072 7.88428 9.90088 8.27246 9.90088 8.77051C9.90088 9.26123 9.49072 9.66406 9 9.66406C8.52393 9.66406 8.10645 9.26123 8.10645 8.77051ZM9 14.769C8.02588 14.769 7.11768 14.542 6.31934 14.1465L8.47266 10.6235C8.69971 10.6821 8.85352 10.6968 8.98535 10.6968C9.82764 10.6968 10.5088 10.1768 10.8384 9.23193H14.9253C14.6909 12.3447 12.1934 14.769 9 14.769Z" fill="white"/>
</svg>
